<svg id="svg" version="1.1" xmlns="http://www.w3.org/2000/svg" xmlns:xlink="http://www.w3.org/1999/xlink" width="400" height="514.5565335138795" viewBox="0, 0, 400,514.5565335138795"><g id="svgg"><path id="path0" d="M104.807 206.590 C 104.435 206.640,104.013 206.794,103.869 206.932 C 103.384 207.400,103.415 308.657,103.900 309.142 C 104.344 309.586,163.075 309.770,163.768 309.330 C 164.221 309.041,164.304 292.564,163.854 292.114 C 163.635 291.895,158.287 291.769,145.051 291.672 C 129.922 291.562,126.474 291.469,126.108 291.165 C 125.424 290.597,125.424 267.290,126.108 266.722 C 126.474 266.418,129.497 266.337,142.695 266.275 C 157.373 266.207,158.866 266.159,159.174 265.750 C 159.594 265.191,159.661 250.121,159.248 249.036 L 158.984 248.341 143.017 248.341 C 133.298 248.341,126.778 248.238,126.355 248.077 L 125.660 247.813 125.664 236.770 C 125.667 230.697,125.776 225.558,125.907 225.351 C 126.353 224.646,128.755 224.541,144.888 224.521 C 154.528 224.509,161.165 224.398,161.408 224.244 C 162.088 223.815,162.161 208.034,161.487 207.220 L 161.002 206.635 133.243 206.567 C 117.976 206.530,105.179 206.540,104.807 206.590 M219.905 235.060 C 219.086 235.327,217.624 235.766,216.655 236.035 C 212.025 237.322,208.897 240.041,205.616 245.633 C 205.310 246.154,204.922 247.098,204.754 247.730 C 204.359 249.217,203.229 249.910,202.091 249.364 L 201.354 249.011 201.281 242.930 C 201.240 239.549,201.094 236.733,200.950 236.590 C 200.533 236.173,181.261 236.019,180.767 236.429 C 180.094 236.987,180.166 309.264,180.840 309.303 C 182.837 309.420,200.853 309.196,200.998 309.052 C 201.101 308.952,201.231 299.973,201.288 289.100 L 201.392 269.330 202.119 266.757 C 203.806 260.780,206.380 257.364,211.147 254.775 L 213.270 253.622 218.822 253.672 C 221.875 253.700,224.800 253.761,225.322 253.808 L 226.269 253.893 226.269 244.961 L 226.269 236.030 225.186 235.448 C 223.627 234.611,221.711 234.471,219.905 235.060 M265.538 235.352 C 265.091 235.494,264.177 235.684,263.507 235.775 C 262.837 235.867,262.196 235.997,262.083 236.066 C 261.969 236.134,260.431 236.299,258.663 236.434 C 256.696 236.583,254.937 236.876,254.130 237.190 C 253.404 237.471,252.047 237.779,251.114 237.872 C 250.181 237.966,248.962 238.271,248.406 238.551 C 247.849 238.831,246.960 239.139,246.430 239.235 C 245.306 239.438,243.622 240.255,242.735 241.026 C 242.118 241.562,242.112 241.629,242.112 247.942 C 242.112 255.064,242.098 255.014,243.905 254.046 C 244.479 253.738,245.086 253.487,245.254 253.487 C 245.422 253.487,245.851 253.260,246.206 252.982 C 246.561 252.705,247.156 252.393,247.529 252.289 C 247.901 252.185,249.009 251.741,249.990 251.303 C 250.972 250.864,252.492 250.373,253.370 250.211 C 254.247 250.048,255.333 249.714,255.783 249.467 C 257.004 248.797,272.666 248.789,273.431 249.458 C 273.707 249.700,274.366 250.036,274.895 250.206 C 275.724 250.472,277.026 251.562,278.715 253.404 C 278.962 253.673,279.432 254.624,279.760 255.518 C 280.088 256.412,280.513 257.569,280.704 258.091 C 281.377 259.923,281.373 261.254,280.694 261.892 C 279.580 262.938,273.534 264.223,268.653 264.452 C 266.195 264.567,264.006 264.809,263.372 265.037 C 262.776 265.250,260.605 265.544,258.547 265.690 C 256.045 265.867,254.597 266.092,254.179 266.366 C 253.834 266.592,252.817 266.895,251.918 267.040 C 250.391 267.286,249.653 267.587,245.104 269.824 C 242.930 270.893,238.306 275.280,237.631 276.915 C 237.385 277.509,237.033 278.179,236.850 278.402 C 235.199 280.409,234.165 290.381,235.207 294.245 C 235.448 295.139,235.829 296.601,236.054 297.495 C 236.280 298.389,236.699 299.371,236.986 299.679 C 237.273 299.986,237.508 300.372,237.508 300.535 C 237.508 301.740,243.890 307.919,245.139 307.922 C 245.336 307.923,245.914 308.177,246.422 308.487 C 246.931 308.797,248.332 309.213,249.537 309.412 C 250.741 309.611,252.519 309.978,253.487 310.229 C 255.583 310.772,258.761 310.652,260.397 309.968 C 260.991 309.720,262.380 309.402,263.485 309.262 C 264.590 309.121,265.686 308.838,265.922 308.633 C 266.158 308.427,266.919 308.012,267.615 307.709 C 268.866 307.165,271.264 305.505,272.309 304.460 C 273.768 303.001,275.139 301.425,276.054 300.155 C 277.141 298.649,278.005 298.253,279.495 298.580 C 280.985 298.908,281.176 299.573,281.104 304.195 C 281.069 306.468,281.056 308.482,281.075 308.670 C 281.103 308.940,282.936 308.997,289.709 308.941 L 298.307 308.869 298.307 282.273 C 298.307 257.949,298.269 255.647,297.863 255.326 C 297.272 254.860,296.654 253.406,296.293 251.629 C 296.131 250.831,295.756 249.870,295.460 249.494 C 295.164 249.118,294.922 248.626,294.922 248.400 C 294.922 247.659,292.962 245.020,290.967 243.076 C 288.309 240.486,288.045 240.276,286.437 239.476 C 285.667 239.093,284.948 238.629,284.838 238.446 C 284.729 238.263,284.058 238.027,283.349 237.922 C 282.639 237.817,281.849 237.544,281.594 237.315 C 281.304 237.056,280.185 236.805,278.625 236.649 C 277.248 236.511,275.264 236.144,274.215 235.834 C 272.085 235.205,266.912 234.918,265.538 235.352 M279.174 273.524 C 279.539 273.526,280.161 273.903,280.633 274.408 L 281.456 275.288 281.303 278.743 C 281.134 282.551,279.702 287.874,278.636 288.659 C 278.359 288.863,278.131 289.252,278.131 289.524 C 278.131 290.024,274.796 293.568,274.325 293.568 C 274.184 293.568,273.828 293.810,273.532 294.105 C 273.237 294.400,272.354 294.872,271.569 295.154 C 270.784 295.436,269.444 295.925,268.592 296.242 C 263.666 298.071,256.323 295.384,254.035 290.915 C 251.285 285.545,254.642 277.603,260.062 276.657 C 260.625 276.559,261.488 276.242,261.979 275.952 C 262.645 275.559,263.764 275.353,266.372 275.146 C 268.297 274.992,270.237 274.749,270.684 274.605 C 272.581 273.994,274.317 273.632,275.703 273.559 C 276.517 273.516,277.241 273.423,277.312 273.353 C 277.383 273.283,277.687 273.292,277.989 273.373 C 278.291 273.454,278.824 273.522,279.174 273.524 " stroke="none" fill="#bfc4cc" fill-rule="evenodd"></path><path id="path1" d="M62.288 108.869 C 62.288 109.018,61.614 109.140,60.790 109.140 C 59.613 109.140,59.254 109.241,59.113 109.614 C 58.900 110.177,58.331 110.788,58.033 110.775 C 57.916 110.769,57.820 110.917,57.820 111.104 C 57.820 111.290,57.546 111.481,57.211 111.529 C 56.875 111.576,56.601 111.793,56.601 112.009 C 56.601 112.226,56.297 112.519,55.924 112.661 C 55.528 112.812,55.247 113.133,55.247 113.436 C 55.247 113.764,55.073 113.941,54.773 113.917 C 54.479 113.894,54.268 114.100,54.216 114.461 C 54.171 114.781,53.897 115.105,53.607 115.181 C 53.300 115.261,53.081 115.551,53.081 115.877 C 53.081 116.261,52.954 116.387,52.677 116.280 C 52.176 116.088,51.982 116.565,51.895 118.202 C 51.858 118.901,51.683 119.562,51.506 119.671 C 51.065 119.944,51.171 395.017,51.612 394.938 C 51.773 394.909,51.908 395.214,51.914 395.615 C 51.941 397.655,52.022 398.056,52.442 398.217 C 52.832 398.366,52.840 398.328,52.510 397.907 C 52.173 397.479,52.180 397.464,52.574 397.772 C 52.817 397.961,53.088 398.479,53.177 398.923 C 53.265 399.366,53.509 399.729,53.719 399.729 C 53.929 399.729,54.168 399.985,54.249 400.298 C 54.337 400.634,54.524 400.789,54.705 400.677 C 54.888 400.564,55.075 400.726,55.167 401.077 C 55.252 401.401,55.609 401.776,55.961 401.910 C 56.313 402.044,56.601 402.339,56.601 402.566 C 56.601 402.925,57.093 403.115,57.752 403.011 C 57.864 402.993,57.941 403.070,57.923 403.182 C 57.795 403.995,58.010 404.240,58.835 404.219 C 59.500 404.203,59.781 404.347,59.983 404.807 C 60.201 405.304,60.467 405.416,61.421 405.416 C 62.132 405.416,62.526 405.523,62.424 405.687 C 62.312 405.868,108.240 405.958,200.000 405.958 C 291.760 405.958,337.688 405.868,337.576 405.687 C 337.474 405.522,337.884 405.416,338.627 405.416 C 339.298 405.416,339.925 405.289,340.022 405.132 C 340.140 404.942,340.338 404.964,340.626 405.200 C 340.999 405.506,341.035 405.472,340.898 404.942 C 340.792 404.532,340.865 404.322,341.122 404.299 C 341.332 404.281,341.655 404.250,341.842 404.232 C 342.028 404.213,342.182 404.076,342.184 403.927 C 342.191 403.469,342.611 402.962,342.857 403.114 C 342.986 403.194,343.160 403.146,343.245 403.009 C 343.330 402.871,343.638 402.822,343.931 402.898 C 344.351 403.008,344.440 402.921,344.356 402.484 C 344.297 402.180,344.447 401.770,344.688 401.575 C 345.011 401.313,345.074 401.309,344.924 401.557 C 344.795 401.772,344.881 401.896,345.159 401.896 C 345.400 401.896,345.527 401.782,345.441 401.644 C 345.356 401.505,345.410 401.315,345.561 401.221 C 345.712 401.128,345.836 400.754,345.836 400.390 C 345.836 399.990,345.993 399.729,346.233 399.729 C 346.619 399.729,347.234 398.885,347.162 398.454 C 347.070 397.902,347.228 397.798,347.643 398.139 C 348.047 398.470,348.079 398.444,347.940 397.901 C 347.853 397.566,347.892 397.225,348.026 397.142 C 348.160 397.059,348.223 396.515,348.166 395.933 C 348.099 395.241,348.170 394.895,348.372 394.932 C 348.754 395.004,348.957 119.959,348.575 119.718 C 348.442 119.635,348.264 119.079,348.178 118.483 C 348.093 117.888,348.019 117.370,348.013 117.332 C 348.007 117.295,347.820 117.265,347.596 117.265 C 347.373 117.265,347.176 117.112,347.159 116.926 C 347.142 116.740,347.099 116.466,347.065 116.317 C 347.030 116.168,346.983 115.833,346.961 115.572 C 346.938 115.311,346.828 115.113,346.716 115.130 C 346.122 115.224,345.836 115.044,345.836 114.575 C 345.836 114.287,345.592 113.974,345.295 113.879 C 344.997 113.785,344.753 113.541,344.753 113.338 C 344.753 113.134,344.509 112.891,344.211 112.796 C 343.913 112.702,343.670 112.447,343.670 112.230 C 343.670 112.010,343.318 111.765,342.877 111.676 C 342.372 111.575,342.134 111.389,342.221 111.162 C 342.389 110.725,341.509 110.223,340.573 110.223 C 340.191 110.223,339.893 110.132,339.910 110.020 C 340.021 109.321,339.792 109.140,338.795 109.140 C 338.199 109.140,337.712 109.018,337.712 108.869 C 337.712 108.689,291.627 108.599,200.000 108.599 C 108.373 108.599,62.288 108.689,62.288 108.869 M162.830 206.294 C 163.263 206.683,163.304 207.489,163.304 215.702 L 163.304 224.686 162.607 225.340 L 161.910 225.995 144.801 226.087 C 132.112 226.155,127.605 226.261,127.359 226.499 C 126.760 227.075,126.856 246.743,127.460 247.185 C 127.827 247.454,131.357 247.529,143.599 247.529 C 157.115 247.529,159.378 247.586,160.068 247.942 L 160.867 248.355 160.867 257.243 C 160.867 265.934,160.854 266.143,160.297 266.647 C 159.754 267.139,158.975 267.169,143.631 267.299 C 129.719 267.416,127.501 267.489,127.279 267.840 C 126.970 268.330,126.926 289.760,127.233 290.243 C 127.395 290.498,131.741 290.592,146.022 290.649 C 163.855 290.721,164.624 290.745,165.171 291.240 C 165.729 291.745,165.741 291.953,165.741 300.655 L 165.741 309.554 164.861 310.093 C 163.513 310.918,103.585 310.808,102.669 309.978 L 102.099 309.462 102.099 258.236 C 102.099 201.006,101.898 206.099,104.164 205.839 C 107.654 205.438,162.348 205.863,162.830 206.294 M226.494 234.008 C 228.254 234.497,228.301 234.795,228.301 245.564 C 228.301 257.159,228.293 257.180,224.451 255.610 C 219.367 253.531,211.329 255.201,207.952 259.039 C 203.248 264.383,202.847 266.958,202.845 291.869 L 202.844 309.534 202.111 310.014 C 201.447 310.449,200.397 310.501,190.904 310.571 L 180.429 310.648 179.582 309.935 L 178.735 309.223 178.806 272.665 L 178.876 236.106 179.515 235.589 C 180.265 234.982,200.023 234.777,201.693 235.359 C 202.770 235.734,202.836 236.055,202.840 240.943 C 202.843 244.865,202.870 245.063,203.406 245.233 C 203.715 245.331,204.002 245.370,204.043 245.319 C 204.084 245.268,204.584 244.374,205.154 243.331 C 206.900 240.135,212.682 235.071,214.586 235.071 C 214.845 235.071,215.447 234.868,215.924 234.620 C 217.635 233.728,224.133 233.352,226.494 234.008 M277.545 234.364 C 278.190 234.599,279.531 234.930,280.524 235.098 C 282.356 235.408,286.223 236.900,287.796 237.905 C 288.271 238.208,289.171 238.761,289.796 239.133 C 292.610 240.809,296.911 246.123,297.948 249.204 C 298.115 249.698,298.339 250.223,298.446 250.372 C 298.859 250.944,299.819 254.289,300.389 257.143 C 300.974 260.075,301.553 306.826,301.029 308.913 C 300.677 310.314,300.083 310.385,289.343 310.301 C 277.479 310.208,278.673 310.748,278.673 305.477 C 278.673 300.737,278.563 300.649,276.036 303.366 C 270.134 309.715,265.177 311.848,256.330 311.848 C 242.002 311.848,233.188 303.398,232.885 289.370 C 232.540 273.411,243.711 264.492,265.944 262.973 C 267.955 262.836,270.288 262.544,271.128 262.325 C 271.967 262.107,273.795 261.841,275.190 261.735 C 278.675 261.471,278.758 261.412,278.625 259.325 C 278.171 252.192,269.572 248.325,259.309 250.639 C 258.267 250.874,256.390 251.255,255.138 251.485 C 253.887 251.716,252.426 252.139,251.892 252.425 C 251.359 252.711,250.708 252.945,250.446 252.945 C 250.013 252.945,244.820 255.384,244.154 255.900 C 243.999 256.020,243.264 256.321,242.520 256.569 C 240.277 257.316,240.128 256.686,240.264 247.023 L 240.352 240.695 241.416 239.777 C 242.001 239.271,242.976 238.733,243.582 238.580 C 244.189 238.428,245.186 238.064,245.797 237.771 C 246.409 237.478,247.932 236.989,249.183 236.685 C 250.433 236.381,251.893 235.963,252.427 235.757 C 252.962 235.550,254.546 235.252,255.948 235.094 C 257.350 234.937,258.923 234.672,259.445 234.506 C 262.198 233.631,275.257 233.528,277.545 234.364 M275.606 275.693 C 275.185 275.823,273.067 276.061,270.901 276.221 C 259.791 277.046,254.976 280.073,254.976 286.234 C 254.976 292.384,259.446 295.370,267.222 294.415 C 273.849 293.600,278.356 288.102,278.793 280.298 C 279.057 275.593,278.507 274.799,275.606 275.693 " stroke="none" fill="#18202f" fill-rule="evenodd"></path><path id="path2" d="M104.164 205.839 C 101.898 206.099,102.099 201.006,102.099 258.236 L 102.099 309.462 102.669 309.978 C 103.585 310.808,163.513 310.918,164.861 310.093 L 165.741 309.554 165.741 300.655 C 165.741 291.953,165.729 291.745,165.171 291.240 C 164.624 290.745,163.855 290.721,146.022 290.649 C 131.741 290.592,127.395 290.498,127.233 290.243 C 126.926 289.760,126.970 268.330,127.279 267.840 C 127.501 267.489,129.719 267.416,143.631 267.299 C 158.975 267.169,159.754 267.139,160.297 266.647 C 160.854 266.143,160.867 265.934,160.867 257.243 L 160.867 248.355 160.068 247.942 C 159.378 247.586,157.115 247.529,143.599 247.529 C 131.357 247.529,127.827 247.454,127.460 247.185 C 126.856 246.743,126.760 227.075,127.359 226.499 C 127.605 226.261,132.112 226.155,144.801 226.087 L 161.910 225.995 162.607 225.340 L 163.304 224.686 163.304 215.702 C 163.304 207.489,163.263 206.683,162.830 206.294 C 162.348 205.863,107.654 205.438,104.164 205.839 M161.446 206.370 C 162.106 206.553,162.484 206.843,162.593 207.249 C 162.966 208.643,162.776 223.845,162.378 224.390 C 162.007 224.898,161.424 224.920,144.668 225.051 C 128.113 225.180,127.316 225.209,126.772 225.702 C 125.956 226.440,125.865 247.308,126.676 247.700 C 126.936 247.827,134.401 247.992,143.263 248.068 C 152.126 248.144,159.529 248.304,159.716 248.425 C 160.298 248.802,160.194 265.611,159.606 266.262 C 159.182 266.731,158.321 266.757,143.374 266.757 C 133.775 266.757,127.319 266.860,126.896 267.021 L 126.202 267.285 126.202 278.944 L 126.202 290.602 126.896 290.867 C 127.322 291.028,134.507 291.131,145.465 291.131 C 163.370 291.131,164.131 291.167,164.722 292.051 C 164.831 292.215,164.922 296.155,164.925 300.806 L 164.929 309.262 164.130 309.675 C 162.934 310.293,104.923 310.302,103.729 309.684 C 102.684 309.144,102.759 313.987,102.911 257.286 L 103.047 206.786 103.724 206.444 C 104.593 206.004,159.874 205.934,161.446 206.370 M217.603 233.970 C 217.156 234.079,216.401 234.371,215.924 234.620 C 215.447 234.868,214.845 235.071,214.586 235.071 C 212.682 235.071,206.900 240.135,205.154 243.331 C 204.584 244.374,204.084 245.268,204.043 245.319 C 204.002 245.370,203.715 245.331,203.406 245.233 C 202.870 245.063,202.843 244.865,202.840 240.943 C 202.836 236.055,202.770 235.734,201.693 235.359 C 200.023 234.777,180.265 234.982,179.515 235.589 L 178.876 236.106 178.806 272.665 L 178.735 309.223 179.582 309.935 L 180.429 310.648 190.904 310.571 C 200.397 310.501,201.447 310.449,202.111 310.014 L 202.844 309.534 202.845 291.869 C 202.847 266.958,203.248 264.383,207.952 259.039 C 211.329 255.201,219.367 253.531,224.451 255.610 C 228.293 257.180,228.301 257.159,228.301 245.564 C 228.301 234.795,228.254 234.497,226.494 234.008 C 225.342 233.688,218.875 233.661,217.603 233.970 M262.153 233.981 C 261.185 234.104,259.966 234.340,259.445 234.506 C 258.923 234.672,257.350 234.937,255.948 235.094 C 254.546 235.252,252.962 235.550,252.427 235.757 C 251.893 235.963,250.433 236.381,249.183 236.685 C 247.932 236.989,246.409 237.478,245.797 237.771 C 245.186 238.064,244.189 238.428,243.582 238.580 C 242.976 238.733,242.001 239.271,241.416 239.777 L 240.352 240.695 240.264 247.023 C 240.128 256.686,240.277 257.316,242.520 256.569 C 243.264 256.321,243.999 256.020,244.154 255.900 C 244.820 255.384,250.013 252.945,250.446 252.945 C 250.708 252.945,251.359 252.711,251.892 252.425 C 252.426 252.139,253.887 251.716,255.138 251.485 C 256.390 251.255,258.267 250.874,259.309 250.639 C 269.572 248.325,278.171 252.192,278.625 259.325 C 278.758 261.412,278.675 261.471,275.190 261.735 C 273.795 261.841,271.967 262.107,271.128 262.325 C 270.288 262.544,267.955 262.836,265.944 262.973 C 251.568 263.955,241.432 268.180,236.724 275.152 C 231.611 282.724,231.595 295.041,236.688 302.586 C 242.938 311.848,257.716 314.888,268.765 309.187 C 271.542 307.754,273.165 306.454,276.036 303.366 C 278.563 300.649,278.673 300.737,278.673 305.477 C 278.673 310.748,277.479 310.208,289.343 310.301 C 300.083 310.385,300.677 310.314,301.029 308.913 C 301.553 306.826,300.974 260.075,300.389 257.143 C 299.819 254.289,298.859 250.944,298.446 250.372 C 298.339 250.223,298.115 249.698,297.948 249.204 C 296.911 246.123,292.610 240.809,289.796 239.133 C 289.171 238.761,288.271 238.208,287.796 237.905 C 286.223 236.900,282.356 235.408,280.524 235.098 C 279.531 234.930,278.190 234.599,277.545 234.364 C 276.184 233.867,265.199 233.593,262.153 233.981 M226.035 234.700 C 227.500 235.395,227.501 235.404,227.424 245.523 C 227.342 256.353,227.500 255.803,224.762 254.776 C 223.515 254.309,222.607 254.220,218.822 254.194 L 214.353 254.164 212.301 255.144 C 207.382 257.493,204.640 260.891,203.148 266.486 C 202.182 270.109,202.031 273.504,202.031 291.603 C 202.031 307.931,202.000 309.104,201.557 309.440 C 200.764 310.042,180.719 309.976,180.048 309.369 C 179.226 308.625,179.282 237.089,180.105 236.205 C 180.654 235.616,180.715 235.613,190.803 235.613 C 203.350 235.613,202.031 234.921,202.033 241.503 C 202.035 249.351,202.589 249.986,205.112 245.041 C 207.135 241.075,212.825 235.613,214.933 235.613 C 215.096 235.613,216.130 235.313,217.229 234.948 C 219.750 234.109,224.507 233.975,226.035 234.700 M273.934 234.527 C 289.895 237.219,296.784 243.368,299.422 257.278 C 300.140 261.064,300.354 308.701,299.655 309.281 C 299.003 309.822,282.241 310.019,280.704 309.503 L 279.621 309.139 279.485 304.748 C 279.369 300.984,279.280 300.287,278.861 299.873 C 278.311 299.331,278.681 299.012,274.962 303.237 C 272.420 306.126,266.934 309.817,265.182 309.817 C 265.010 309.817,263.801 310.142,262.496 310.540 C 256.204 312.456,246.641 310.678,241.596 306.654 C 230.347 297.682,231.282 277.492,243.298 269.892 C 247.110 267.481,253.521 265.163,256.466 265.130 C 256.987 265.124,258.937 264.814,260.799 264.441 C 262.661 264.068,265.768 263.651,267.705 263.516 C 269.641 263.380,272.351 263.018,273.728 262.711 C 275.104 262.404,276.650 262.153,277.163 262.153 C 279.490 262.153,279.913 261.408,279.328 258.339 C 278.590 254.469,276.913 252.392,273.039 250.553 L 270.955 249.563 266.080 249.476 C 263.399 249.428,260.535 249.509,259.716 249.654 C 257.620 250.026,251.510 251.600,251.185 251.852 C 251.036 251.967,250.296 252.263,249.540 252.509 C 248.785 252.755,246.960 253.564,245.486 254.305 C 241.104 256.509,241.300 256.799,241.300 248.134 C 241.300 239.909,241.376 239.718,245.039 238.823 C 245.738 238.652,246.737 238.302,247.258 238.045 C 247.779 237.788,249.011 237.440,249.995 237.271 C 250.979 237.103,252.495 236.720,253.364 236.421 C 254.233 236.122,256.048 235.755,257.398 235.606 C 258.747 235.457,260.704 235.157,261.747 234.940 C 262.789 234.723,263.947 234.498,264.320 234.439 C 265.610 234.236,272.586 234.299,273.934 234.527 M274.069 275.046 C 273.250 275.252,270.934 275.551,268.923 275.710 C 259.580 276.448,254.851 279.448,254.146 285.087 C 252.644 297.086,270.791 299.553,277.581 288.273 C 279.399 285.252,280.576 276.507,279.347 275.149 C 278.758 274.498,276.425 274.452,274.069 275.046 M278.735 276.371 C 279.208 278.021,278.688 283.232,277.825 285.482 C 275.825 290.696,272.127 293.812,267.222 294.415 C 259.446 295.370,254.976 292.384,254.976 286.234 C 254.976 280.073,259.791 277.046,270.901 276.221 C 273.067 276.061,275.185 275.823,275.606 275.693 C 277.206 275.200,278.478 275.475,278.735 276.371 " stroke="none" fill="#636975" fill-rule="evenodd"></path><path id="path3" d="M104.471 206.291 C 102.796 206.536,102.911 202.705,102.911 258.280 L 102.911 308.992 103.554 309.414 C 104.516 310.043,163.344 310.031,164.306 309.400 L 164.929 308.992 164.929 300.790 C 164.929 292.909,164.907 292.564,164.377 291.994 L 163.825 291.401 148.737 291.361 C 140.439 291.339,132.492 291.285,131.077 291.241 C 129.661 291.197,128.116 291.154,127.643 291.146 C 125.884 291.115,125.931 291.436,125.935 279.263 C 125.938 267.767,125.978 267.128,126.705 266.915 C 126.950 266.844,134.119 266.750,142.637 266.707 C 159.638 266.622,159.634 266.622,159.885 265.370 C 160.223 263.680,160.068 249.604,159.704 248.883 L 159.361 248.206 143.030 248.070 C 127.260 247.940,126.686 247.917,126.315 247.409 C 125.920 246.869,125.721 227.620,126.097 226.220 C 126.367 225.212,126.712 225.190,144.373 225.051 C 158.423 224.940,161.679 224.847,162.044 224.544 C 162.748 223.959,162.723 207.044,162.018 206.682 C 161.559 206.446,105.990 206.069,104.471 206.291 M161.487 207.220 C 162.161 208.034,162.088 223.815,161.408 224.244 C 161.165 224.398,154.528 224.509,144.888 224.521 C 128.755 224.541,126.353 224.646,125.907 225.351 C 125.776 225.558,125.667 230.697,125.664 236.770 L 125.660 247.813 126.355 248.077 C 126.778 248.238,133.298 248.341,143.017 248.341 L 158.984 248.341 159.248 249.036 C 159.661 250.121,159.594 265.191,159.174 265.750 C 158.866 266.159,157.373 266.207,142.695 266.275 C 129.497 266.337,126.474 266.418,126.108 266.722 C 125.424 267.290,125.424 290.597,126.108 291.165 C 126.474 291.469,129.922 291.562,145.051 291.672 C 158.287 291.769,163.635 291.895,163.854 292.114 C 164.304 292.564,164.221 309.041,163.768 309.330 C 163.075 309.770,104.344 309.586,103.900 309.142 C 103.415 308.657,103.384 207.400,103.869 206.932 C 104.314 206.504,104.770 206.498,133.243 206.567 L 161.002 206.635 161.487 207.220 M219.770 234.427 C 211.928 236.384,207.734 239.742,204.376 246.756 C 202.502 250.670,201.914 249.686,201.835 242.504 C 201.768 236.463,201.667 236.012,200.346 235.815 C 197.124 235.333,180.923 235.597,180.380 236.140 C 179.528 236.992,179.496 309.081,180.348 309.537 C 181.190 309.988,200.684 309.898,201.286 309.440 C 201.729 309.104,201.760 307.945,201.761 291.913 C 201.761 273.508,201.924 270.158,203.002 266.376 C 204.678 260.499,207.066 257.539,212.090 255.109 L 214.325 254.028 218.580 254.028 C 222.025 254.028,223.156 254.128,224.516 254.551 C 225.704 254.921,226.386 255.002,226.842 254.829 L 227.488 254.583 227.484 245.707 C 227.480 236.181,227.457 236.009,226.063 234.974 C 225.317 234.420,221.224 234.064,219.770 234.427 M266.080 234.425 C 265.633 234.492,263.988 234.777,262.424 235.058 C 260.860 235.339,258.729 235.652,257.689 235.755 C 256.648 235.857,254.576 236.292,253.085 236.723 C 251.593 237.153,250.094 237.506,249.755 237.507 C 249.415 237.508,248.414 237.813,247.529 238.186 C 246.644 238.558,245.691 238.863,245.411 238.863 C 244.755 238.863,242.350 240.120,241.909 240.693 C 241.554 241.155,241.396 254.070,241.735 254.954 C 241.993 255.626,242.666 255.474,245.344 254.144 C 248.545 252.553,251.448 251.501,256.601 250.065 C 259.171 249.349,259.607 249.310,265.132 249.300 L 270.955 249.289 273.257 250.396 C 277.216 252.301,278.764 254.307,279.663 258.698 C 280.266 261.641,280.155 261.800,277.140 262.306 C 275.972 262.501,274.176 262.845,273.149 263.069 C 272.122 263.293,269.989 263.558,268.410 263.658 C 266.830 263.758,264.015 264.121,262.153 264.464 C 260.291 264.808,257.854 265.175,256.737 265.280 C 255.619 265.384,253.806 265.760,252.707 266.114 C 251.609 266.467,250.512 266.759,250.270 266.762 C 249.720 266.768,246.642 268.190,244.144 269.591 C 228.727 278.239,231.690 306.468,248.363 309.795 C 249.170 309.956,250.501 310.283,251.320 310.521 C 256.999 312.173,266.021 310.305,271.253 306.393 C 273.135 304.986,273.808 304.313,276.726 300.925 C 278.318 299.075,278.438 299.021,279.215 299.797 C 279.711 300.293,279.756 300.700,279.756 304.662 C 279.756 308.727,279.789 309.003,280.305 309.279 C 281.065 309.686,299.110 309.530,299.526 309.113 C 300.072 308.567,299.734 260.761,299.161 257.414 C 297.146 245.639,289.759 237.631,279.281 235.861 C 278.276 235.691,276.479 235.317,275.288 235.028 C 273.187 234.520,267.799 234.167,266.080 234.425 M225.186 235.448 L 226.269 236.030 226.269 244.961 L 226.269 253.893 225.322 253.808 C 224.800 253.761,221.875 253.700,218.822 253.672 L 213.270 253.622 211.147 254.775 C 206.380 257.364,203.806 260.780,202.119 266.757 L 201.392 269.330 201.288 289.100 C 201.231 299.973,201.101 308.952,200.998 309.052 C 200.853 309.196,182.837 309.420,180.840 309.303 C 180.166 309.264,180.094 236.987,180.767 236.429 C 181.261 236.019,200.533 236.173,200.950 236.590 C 201.094 236.733,201.240 239.549,201.281 242.930 L 201.354 249.011 202.091 249.364 C 203.229 249.910,204.359 249.217,204.754 247.730 C 204.922 247.098,205.310 246.154,205.616 245.633 C 208.897 240.041,212.025 237.322,216.655 236.035 C 217.624 235.766,219.086 235.327,219.905 235.060 C 221.711 234.471,223.627 234.611,225.186 235.448 M274.215 235.834 C 275.264 236.144,277.248 236.511,278.625 236.649 C 280.185 236.805,281.304 237.056,281.594 237.315 C 281.849 237.544,282.639 237.817,283.349 237.922 C 284.058 238.027,284.729 238.263,284.838 238.446 C 284.948 238.629,285.667 239.093,286.437 239.476 C 288.045 240.276,288.309 240.486,290.967 243.076 C 292.962 245.020,294.922 247.659,294.922 248.400 C 294.922 248.626,295.164 249.118,295.460 249.494 C 295.756 249.870,296.131 250.831,296.293 251.629 C 296.654 253.406,297.272 254.860,297.863 255.326 C 298.269 255.647,298.307 257.949,298.307 282.273 L 298.307 308.869 289.709 308.941 C 282.936 308.997,281.103 308.940,281.075 308.670 C 281.056 308.482,281.069 306.468,281.104 304.195 C 281.176 299.573,280.985 298.908,279.495 298.580 C 278.005 298.253,277.141 298.649,276.054 300.155 C 275.139 301.425,273.768 303.001,272.309 304.460 C 271.264 305.505,268.866 307.165,267.615 307.709 C 266.919 308.012,266.158 308.427,265.922 308.633 C 265.686 308.838,264.590 309.121,263.485 309.262 C 262.380 309.402,260.991 309.720,260.397 309.968 C 258.761 310.652,255.583 310.772,253.487 310.229 C 252.519 309.978,250.741 309.611,249.537 309.412 C 248.332 309.213,246.931 308.797,246.422 308.487 C 245.914 308.177,245.336 307.923,245.139 307.922 C 243.890 307.919,237.508 301.740,237.508 300.535 C 237.508 300.372,237.273 299.986,236.986 299.679 C 236.699 299.371,236.280 298.389,236.054 297.495 C 235.829 296.601,235.448 295.139,235.207 294.245 C 234.165 290.381,235.199 280.409,236.850 278.402 C 237.033 278.179,237.385 277.509,237.631 276.915 C 238.306 275.280,242.930 270.893,245.104 269.824 C 249.653 267.587,250.391 267.286,251.918 267.040 C 252.817 266.895,253.834 266.592,254.179 266.366 C 254.597 266.092,256.045 265.867,258.547 265.690 C 260.605 265.544,262.776 265.250,263.372 265.037 C 264.006 264.809,266.195 264.567,268.653 264.452 C 273.534 264.223,279.580 262.938,280.694 261.892 C 281.373 261.254,281.377 259.923,280.704 258.091 C 280.513 257.569,280.088 256.412,279.760 255.518 C 279.432 254.624,278.962 253.673,278.715 253.404 C 277.026 251.562,275.724 250.472,274.895 250.206 C 274.366 250.036,273.707 249.700,273.431 249.458 C 272.666 248.789,257.004 248.797,255.783 249.467 C 255.333 249.714,254.247 250.048,253.370 250.211 C 252.492 250.373,250.972 250.864,249.990 251.303 C 249.009 251.741,247.901 252.185,247.529 252.289 C 247.156 252.393,246.561 252.705,246.206 252.982 C 245.851 253.260,245.422 253.487,245.254 253.487 C 245.086 253.487,244.479 253.738,243.905 254.046 C 242.098 255.014,242.112 255.064,242.112 247.942 C 242.112 241.629,242.118 241.562,242.735 241.026 C 243.622 240.255,245.306 239.438,246.430 239.235 C 246.960 239.139,247.849 238.831,248.406 238.551 C 248.962 238.271,250.181 237.966,251.114 237.872 C 252.047 237.779,253.404 237.471,254.130 237.190 C 254.937 236.876,256.696 236.583,258.663 236.434 C 260.431 236.299,261.969 236.134,262.083 236.066 C 262.196 235.997,262.837 235.867,263.507 235.775 C 264.177 235.684,265.091 235.494,265.538 235.352 C 266.912 234.918,272.085 235.205,274.215 235.834 M277.312 273.353 C 277.241 273.423,276.517 273.516,275.703 273.559 C 274.317 273.632,272.581 273.994,270.684 274.605 C 270.237 274.749,268.297 274.992,266.372 275.146 C 263.764 275.353,262.645 275.559,261.979 275.952 C 261.488 276.242,260.625 276.559,260.062 276.657 C 254.642 277.603,251.285 285.545,254.035 290.915 C 256.323 295.384,263.666 298.071,268.592 296.242 C 269.444 295.925,270.784 295.436,271.569 295.154 C 272.354 294.872,273.237 294.400,273.532 294.105 C 273.828 293.810,274.184 293.568,274.325 293.568 C 274.796 293.568,278.131 290.024,278.131 289.524 C 278.131 289.252,278.359 288.863,278.636 288.659 C 279.702 287.874,281.134 282.551,281.303 278.743 L 281.456 275.288 280.633 274.408 C 280.161 273.903,279.539 273.526,279.174 273.524 C 278.824 273.522,278.291 273.454,277.989 273.373 C 277.687 273.292,277.383 273.283,277.312 273.353 M279.425 274.761 C 280.913 275.803,279.825 285.002,277.823 288.312 C 270.601 300.250,251.456 297.058,254.083 284.354 C 255.186 279.019,259.637 276.232,267.961 275.664 C 269.905 275.531,272.410 275.188,273.527 274.901 C 276.076 274.247,278.605 274.187,279.425 274.761 " stroke="none" fill="#7c848d" fill-rule="evenodd"></path><path id="path4" d="M132.247 206.296 C 137.583 206.338,146.236 206.338,151.476 206.296 C 156.715 206.255,152.349 206.222,141.774 206.222 C 131.198 206.222,126.911 206.255,132.247 206.296 M162.612 215.708 C 162.612 220.325,162.649 222.252,162.694 219.990 C 162.739 217.728,162.739 213.950,162.694 211.594 C 162.649 209.239,162.612 211.090,162.612 215.708 M126.054 236.696 C 126.054 242.431,126.090 244.777,126.134 241.909 C 126.178 239.042,126.178 234.350,126.134 231.483 C 126.090 228.615,126.054 230.961,126.054 236.696 M265.338 234.450 C 265.675 234.515,266.163 234.512,266.422 234.445 C 266.681 234.377,266.405 234.324,265.809 234.327 C 265.213 234.330,265.001 234.385,265.338 234.450 M226.256 235.108 C 226.660 235.427,227.096 235.945,227.223 236.259 C 227.417 236.741,227.457 236.754,227.471 236.345 C 227.489 235.845,226.268 234.529,225.787 234.529 C 225.640 234.529,225.851 234.790,226.256 235.108 M261.747 234.930 C 259.948 235.392,260.749 235.402,262.965 234.946 C 263.934 234.746,264.360 234.582,263.913 234.582 C 263.466 234.582,262.492 234.738,261.747 234.930 M275.423 235.080 C 276.540 235.360,277.698 235.588,277.996 235.586 C 278.294 235.583,277.684 235.352,276.642 235.071 C 275.599 234.790,274.441 234.563,274.069 234.565 C 273.697 234.567,274.306 234.799,275.423 235.080 M258.971 235.529 C 259.232 235.597,259.658 235.597,259.919 235.529 C 260.179 235.460,259.966 235.405,259.445 235.405 C 258.923 235.405,258.710 235.460,258.971 235.529 M213.879 236.038 C 213.470 236.261,213.135 236.503,213.135 236.576 C 213.135 236.650,213.470 236.541,213.879 236.334 C 214.289 236.127,214.807 235.890,215.030 235.807 C 215.392 235.672,215.392 235.654,215.030 235.645 C 214.807 235.639,214.289 235.816,213.879 236.038 M256.263 235.799 C 256.523 235.868,256.950 235.868,257.211 235.799 C 257.471 235.731,257.258 235.676,256.737 235.676 C 256.215 235.676,256.002 235.731,256.263 235.799 M254.164 236.154 C 253.474 236.451,254.186 236.451,255.112 236.154 C 255.656 235.980,255.683 235.936,255.247 235.930 C 254.949 235.925,254.462 236.026,254.164 236.154 M281.517 236.397 C 282.261 236.670,283.541 237.141,284.360 237.443 C 289.558 239.359,293.564 243.086,296.512 248.747 C 296.978 249.641,297.359 250.218,297.359 250.030 C 297.360 249.139,294.569 244.758,292.767 242.822 C 289.985 239.834,282.992 235.846,280.616 235.892 C 280.367 235.897,280.772 236.124,281.517 236.397 M179.678 236.764 C 179.607 236.950,179.581 253.311,179.619 273.121 L 179.689 309.140 179.824 272.783 C 179.898 252.786,179.925 236.425,179.883 236.425 C 179.841 236.425,179.749 236.578,179.678 236.764 M211.051 237.934 L 210.291 238.631 211.171 238.019 C 211.655 237.682,212.051 237.369,212.051 237.322 C 212.051 237.108,211.752 237.292,211.051 237.934 M201.871 242.713 C 201.900 248.887,202.195 249.869,203.527 248.216 C 203.883 247.775,204.115 247.356,204.044 247.285 C 203.973 247.214,203.728 247.422,203.499 247.748 C 202.474 249.212,202.228 248.320,202.021 242.383 L 201.846 237.373 201.871 242.713 M247.258 238.050 C 246.015 238.730,246.344 238.734,247.838 238.056 C 248.487 237.761,248.835 237.523,248.612 237.526 C 248.389 237.529,247.779 237.765,247.258 238.050 M208.916 239.743 C 207.769 240.964,206.499 242.526,207.210 241.842 C 208.029 241.053,210.228 238.592,210.114 238.592 C 210.050 238.592,209.511 239.110,208.916 239.743 M242.789 239.691 C 242.343 239.976,241.825 240.417,241.638 240.671 C 241.165 241.317,241.152 254.856,241.625 255.328 C 242.075 255.779,242.991 255.735,243.618 255.232 C 244.126 254.825,244.123 254.821,243.552 255.097 C 241.615 256.032,241.570 255.866,241.575 247.845 C 241.579 240.591,241.551 240.743,243.089 239.798 C 243.669 239.442,244.022 239.155,243.873 239.162 C 243.724 239.168,243.236 239.406,242.789 239.691 M263.587 249.355 C 264.748 249.406,266.576 249.406,267.649 249.355 C 268.723 249.303,267.773 249.262,265.538 249.262 C 263.304 249.262,262.426 249.304,263.587 249.355 M258.971 249.611 C 259.232 249.679,259.658 249.679,259.919 249.611 C 260.179 249.543,259.966 249.487,259.445 249.487 C 258.923 249.487,258.710 249.543,258.971 249.611 M271.496 249.934 C 275.223 251.282,276.999 252.663,278.306 255.230 C 278.841 256.282,279.201 256.804,279.104 256.391 C 278.462 253.622,273.340 249.387,270.691 249.434 C 270.389 249.440,270.752 249.664,271.496 249.934 M256.195 250.255 C 255.234 250.582,255.038 250.704,255.644 250.600 C 256.743 250.412,258.684 249.730,258.091 249.741 C 257.867 249.745,257.014 249.976,256.195 250.255 M297.653 251.456 C 297.641 251.605,297.879 252.336,298.183 253.081 C 298.487 253.825,298.663 254.083,298.574 253.652 C 298.385 252.732,297.684 251.062,297.653 251.456 M246.716 253.487 C 246.195 253.772,245.866 254.011,245.985 254.017 C 246.272 254.032,247.800 253.238,247.800 253.074 C 247.800 252.896,247.784 252.902,246.716 253.487 M214.695 254.220 C 215.032 254.285,215.519 254.282,215.778 254.215 C 216.037 254.147,215.762 254.094,215.166 254.097 C 214.570 254.100,214.358 254.155,214.695 254.220 M221.736 254.220 C 222.073 254.285,222.561 254.282,222.820 254.215 C 223.079 254.147,222.803 254.094,222.207 254.097 C 221.611 254.100,221.400 254.155,221.736 254.220 M299.117 257.007 C 299.185 257.678,299.370 259.567,299.530 261.205 C 299.717 263.133,299.792 272.115,299.741 286.650 L 299.661 309.116 298.984 309.304 C 298.417 309.462,298.397 309.497,298.863 309.519 C 300.095 309.579,300.068 310.110,300.068 286.095 C 300.068 264.388,299.927 259.368,299.244 256.749 C 299.004 255.826,298.999 255.836,299.117 257.007 M279.259 257.549 C 279.247 257.773,279.341 258.490,279.468 259.143 C 279.594 259.797,279.594 260.691,279.468 261.130 C 279.273 261.811,279.297 261.880,279.633 261.601 C 279.850 261.421,280.015 260.954,280.001 260.563 C 279.970 259.724,279.288 256.955,279.259 257.549 M206.652 258.986 L 205.993 259.851 206.856 259.056 C 207.753 258.228,207.856 258.081,207.515 258.106 C 207.404 258.114,207.015 258.510,206.652 258.986 M273.121 262.836 C 272.376 263.028,272.011 263.194,272.309 263.205 C 272.607 263.216,273.460 263.056,274.204 262.849 C 275.904 262.376,274.955 262.365,273.121 262.836 M270.345 263.423 C 270.606 263.491,271.032 263.491,271.293 263.423 C 271.554 263.355,271.341 263.299,270.819 263.299 C 270.298 263.299,270.085 263.355,270.345 263.423 M266.142 263.703 C 266.622 263.762,267.475 263.763,268.037 263.705 C 268.599 263.646,268.206 263.597,267.163 263.596 C 266.121 263.595,265.661 263.643,266.142 263.703 M261.476 264.320 C 260.284 264.585,259.553 264.808,259.851 264.815 C 260.149 264.822,261.490 264.603,262.830 264.327 C 264.171 264.051,264.902 263.828,264.455 263.831 C 264.008 263.834,262.668 264.054,261.476 264.320 M255.589 265.324 C 255.926 265.388,256.413 265.386,256.672 265.318 C 256.931 265.250,256.655 265.197,256.060 265.200 C 255.464 265.203,255.252 265.259,255.589 265.324 M251.997 266.090 C 250.904 266.590,251.558 266.591,252.711 266.090 C 253.212 265.873,253.439 265.700,253.216 265.706 C 252.993 265.713,252.444 265.885,251.997 266.090 M202.728 267.183 C 202.628 267.579,202.599 267.956,202.662 268.020 C 202.726 268.084,202.860 267.812,202.960 267.415 C 203.059 267.018,203.089 266.641,203.025 266.577 C 202.961 266.513,202.827 266.786,202.728 267.183 M126.055 279.079 C 126.055 285.335,126.090 287.856,126.134 284.680 C 126.177 281.505,126.177 276.387,126.134 273.306 C 126.090 270.225,126.055 272.823,126.055 279.079 M202.365 269.194 C 202.365 269.716,202.421 269.929,202.489 269.668 C 202.557 269.408,202.557 268.981,202.489 268.720 C 202.421 268.460,202.365 268.673,202.365 269.194 M244.617 269.077 C 243.984 269.456,243.466 269.831,243.466 269.909 C 243.466 270.055,245.294 269.017,245.755 268.609 C 246.220 268.198,245.787 268.376,244.617 269.077 M202.112 271.632 C 202.112 272.451,202.163 272.786,202.225 272.376 C 202.287 271.967,202.287 271.297,202.225 270.887 C 202.163 270.477,202.112 270.812,202.112 271.632 M239.800 272.783 L 238.456 274.204 239.878 272.861 C 240.660 272.121,241.300 271.482,241.300 271.439 C 241.300 271.237,241.049 271.462,239.800 272.783 M201.888 291.401 C 201.888 301.307,201.922 305.359,201.963 300.406 C 202.005 295.454,202.005 287.349,201.963 282.397 C 201.922 277.444,201.888 281.496,201.888 291.401 M273.663 274.873 C 272.620 275.141,271.950 275.373,272.173 275.388 C 272.397 275.403,273.311 275.238,274.204 275.022 C 279.223 273.811,279.881 274.336,279.703 279.414 C 279.631 281.464,279.662 282.837,279.773 282.464 C 280.302 280.676,280.055 275.203,279.425 274.761 C 278.621 274.198,276.091 274.247,273.663 274.873 M236.831 276.506 C 236.600 276.953,236.472 277.319,236.547 277.319 C 236.621 277.319,236.871 276.953,237.102 276.506 C 237.333 276.060,237.461 275.694,237.387 275.694 C 237.312 275.694,237.062 276.060,236.831 276.506 M266.016 275.888 C 266.428 275.951,267.037 275.949,267.370 275.885 C 267.703 275.820,267.366 275.769,266.622 275.771 C 265.877 275.773,265.604 275.826,266.016 275.888 M263.101 276.361 C 262.033 276.850,262.274 276.859,263.778 276.385 C 264.448 276.174,264.753 275.998,264.455 275.995 C 264.157 275.992,263.548 276.157,263.101 276.361 M258.903 277.795 C 256.403 279.449,254.774 281.308,254.432 282.897 C 254.305 283.487,254.401 283.391,254.818 282.512 C 255.732 280.586,256.429 279.792,258.318 278.525 C 259.307 277.862,259.996 277.325,259.848 277.333 C 259.701 277.341,259.276 277.549,258.903 277.795 M234.963 280.878 C 234.510 282.478,234.178 284.108,234.392 283.683 C 234.653 283.163,235.575 279.628,235.475 279.528 C 235.419 279.473,235.189 280.080,234.963 280.878 M253.835 286.391 C 253.837 287.136,253.890 287.409,253.952 286.997 C 254.014 286.585,254.013 285.976,253.948 285.643 C 253.884 285.310,253.833 285.647,253.835 286.391 M278.592 286.270 C 278.202 287.827,276.079 290.622,273.797 292.584 C 272.801 293.440,272.730 293.555,273.406 293.214 C 275.216 292.302,279.219 286.945,278.871 285.901 C 278.812 285.726,278.687 285.892,278.592 286.270 M233.820 289.100 C 233.821 290.887,233.865 291.583,233.918 290.646 C 233.971 289.709,233.970 288.247,233.917 287.396 C 233.863 286.546,233.820 287.312,233.820 289.100 M254.580 290.183 C 254.581 290.332,254.831 290.758,255.136 291.131 C 255.504 291.580,255.596 291.626,255.410 291.266 C 254.953 290.383,254.578 289.893,254.580 290.183 M141.048 291.334 C 145.267 291.376,152.091 291.376,156.214 291.334 C 160.337 291.292,156.886 291.257,148.544 291.257 C 140.203 291.257,136.830 291.292,141.048 291.334 M255.653 292.028 C 255.653 292.074,256.049 292.471,256.534 292.908 L 257.414 293.703 256.618 292.823 C 255.877 292.003,255.653 291.819,255.653 292.028 M271.361 294.110 C 270.840 294.395,270.510 294.634,270.630 294.640 C 270.917 294.655,272.444 293.861,272.444 293.696 C 272.444 293.519,272.428 293.525,271.361 294.110 M234.297 294.651 C 234.297 294.875,234.401 295.301,234.529 295.599 C 234.676 295.941,234.762 295.991,234.762 295.735 C 234.762 295.511,234.657 295.085,234.529 294.787 C 234.383 294.445,234.297 294.395,234.297 294.651 M261.205 295.319 C 262.300 295.846,267.083 295.837,268.382 295.305 C 269.194 294.973,269.213 294.947,268.517 295.123 C 267.474 295.387,261.957 295.391,261.070 295.128 C 260.558 294.976,260.591 295.023,261.205 295.319 M234.814 296.469 C 234.796 296.890,235.905 299.866,236.032 299.738 C 236.085 299.686,235.836 298.855,235.478 297.892 C 235.121 296.929,234.822 296.289,234.814 296.469 M277.150 300.429 C 276.573 301.075,275.461 302.346,274.679 303.254 C 273.898 304.162,272.264 305.644,271.050 306.548 C 269.835 307.453,268.930 308.192,269.038 308.192 C 269.570 308.192,273.480 304.922,274.962 303.237 C 275.886 302.188,277.039 300.893,277.525 300.360 L 278.408 299.391 278.947 300.030 C 279.433 300.607,279.485 301.071,279.485 304.821 C 279.485 307.105,279.577 309.030,279.689 309.099 C 280.221 309.430,279.632 300.031,279.095 299.639 C 278.360 299.102,278.324 299.117,277.150 300.429 M237.349 302.099 C 237.754 302.935,239.728 305.108,241.165 306.300 C 241.611 306.670,241.059 305.999,239.938 304.807 C 238.817 303.615,237.687 302.336,237.427 301.963 L 236.955 301.286 237.349 302.099 M242.112 306.980 C 242.112 307.172,244.278 308.555,244.391 308.435 C 244.447 308.376,243.957 307.997,243.303 307.593 C 242.648 307.189,242.112 306.914,242.112 306.980 M267.028 308.869 C 266.357 309.228,265.931 309.522,266.080 309.522 C 266.229 309.522,266.899 309.228,267.569 308.869 C 268.240 308.510,268.666 308.217,268.517 308.217 C 268.368 308.217,267.698 308.510,267.028 308.869 M245.498 309.005 C 245.944 309.301,246.432 309.543,246.581 309.544 C 246.730 309.544,246.453 309.301,245.965 309.004 C 244.815 308.303,244.439 308.304,245.498 309.005 M284.292 309.749 C 285.968 309.796,288.710 309.796,290.386 309.749 C 292.062 309.701,290.691 309.662,287.339 309.662 C 283.988 309.662,282.617 309.701,284.292 309.749 M294.177 309.740 C 294.587 309.802,295.257 309.802,295.667 309.740 C 296.077 309.678,295.741 309.628,294.922 309.628 C 294.103 309.628,293.768 309.678,294.177 309.740 M120.447 310.020 C 128.378 310.060,141.357 310.060,149.289 310.020 C 157.221 309.980,150.731 309.948,134.868 309.948 C 119.005 309.948,112.515 309.980,120.447 310.020 M249.425 310.237 C 250.095 310.449,250.765 310.614,250.914 310.605 C 251.388 310.576,249.312 309.859,248.747 309.856 C 248.450 309.855,248.754 310.026,249.425 310.237 M261.341 310.539 C 260.074 310.894,259.532 311.123,260.136 311.048 C 261.265 310.907,264.776 309.862,264.049 309.883 C 263.825 309.889,262.607 310.185,261.341 310.539 M251.862 310.900 C 252.234 311.020,252.844 311.115,253.216 311.112 C 253.824 311.108,253.810 311.086,253.081 310.900 C 251.935 310.609,250.952 310.609,251.862 310.900 M255.179 311.370 C 255.887 311.426,257.045 311.426,257.752 311.370 C 258.460 311.315,257.881 311.269,256.466 311.269 C 255.051 311.269,254.472 311.315,255.179 311.370 " stroke="none" fill="#767c8c" fill-rule="evenodd"></path></g></svg>